<?xml version="1.0" encoding="iso-8859-1"?>
<!-- Uploaded to: SVG Repo, www.svgrepo.com, Generator: SVG Repo Mixer Tools -->
<svg fill="#000000" height="800px" width="800px" version="1.1" id="Capa_1" xmlns="http://www.w3.org/2000/svg" xmlns:xlink="http://www.w3.org/1999/xlink" 
	 viewBox="0 0 490 490" xml:space="preserve">
<g>
	<path d="M438.05,385v-26.7c16.3-4.3,28.8-19.1,28.8-36.9c0-17.7-12.2-32.8-28.4-36.8v-26.2c16.3-4.3,28.8-19.1,28.8-36.9
		c0-17.9-12.1-32.7-28.8-36.9V9.7c0-5.4-4.3-9.7-9.7-9.7s-9.7,4.3-9.7,9.7v174.6c-16.3,4.3-28.8,19.1-28.8,36.9
		c0,17.9,12.1,32.7,28.8,36.9v26.2c-16.5,4.4-28.4,19.1-28.4,36.8c0,17.9,12.1,32.7,28.8,36.9v27h-103.9v-26.8
		c16.3-4.3,28.8-19.1,28.8-36.9c0-17.7-12.2-32.8-28.4-36.8v-26.6c16.3-4.3,28.8-19.1,28.8-36.9c0-17.7-12.2-32.8-28.4-36.8v-26.4
		c16.3-4.3,28.8-19.1,28.8-36.9c0-17.9-12.1-32.7-28.8-36.9V9.7c0-5.4-4.3-9.7-9.7-9.7c-5.4,0-9.7,4.3-9.7,9.7v73.9
		c-16.3,4.3-28.8,19.1-28.8,36.9c0,17.9,12.1,32.7,28.8,36.9v26.2c-16.5,4.4-28.4,19.1-28.4,36.8c0,17.9,12.1,32.7,28.8,36.9v26.2
		c-16.5,4.4-28.4,19.1-28.4,36.8c0,17.9,12.1,32.7,28.8,36.9V385h-104.3v-27.6c16.3-4.3,28.8-19.1,28.8-36.9
		c0-17.9-12.4-33.1-28.8-36.9c0-0.8,0.4-273.8,0.4-273.8c0-5.4-4.3-9.7-9.7-9.7s-9.7,4.3-9.7,9.7c0,0,0,273.9,0.4,274.3
		c-16.7,4.3-28.8,19.1-28.8,36.9s12.1,32.7,28.8,36.9V385H70.95v-27.1c16.3-4.3,28.8-19.1,28.8-36.9c0-17.7-12.2-32.8-28.4-36.8V258
		c16.3-4.3,28.8-19.1,28.8-36.9c0-17.7-12.2-32.8-28.4-36.8v-26.8c16.3-4.3,28.8-19.1,28.8-36.9c0-17.9-12.1-32.7-28.8-36.9v-74
		c0-5.4-4.3-9.7-9.7-9.7s-9.7,4.3-9.7,9.7v73.9c-16.3,4.3-28.8,19.1-28.8,36.9c0,17.9,12.1,32.7,28.8,36.9v26.2
		c-16.5,4.4-28.4,19.1-28.4,36.8c0,17.9,12.1,32.7,28.8,36.9v26.2c-16.5,4.4-28.4,19.1-28.4,36.8c0,17.9,12.1,32.7,28.8,36.9V385
		H4.85v105h480.3V385H438.05z"/>
</g>
</svg>